<svg width="123" height="81" viewBox="0 0 123 81" fill="none" xmlns="http://www.w3.org/2000/svg">
<path d="M15.15 27.75H14.95C14.4833 29.05 13.95 30.5667 13.35 32.3C12.75 34.0333 12.1167 35.8333 11.45 37.7C10.8167 39.5333 10.2167 41.2833 9.65 42.95L9.2 44.85C9 45.4833 8.76667 46.2167 8.5 47.05C8.23333 47.8833 7.95 48.75 7.65 49.65C7.38333 50.5167 7.11667 51.35 6.85 52.15C6.58333 52.9167 6.36667 53.55 6.2 54.05C5.93333 54.1833 5.63333 54.2833 5.3 54.35C5 54.4167 4.61667 54.45 4.15 54.45C3.35 54.45 2.68333 54.2667 2.15 53.9C1.65 53.5333 1.4 53 1.4 52.3C1.4 51.9333 1.45 51.5833 1.55 51.25C1.68333 50.8833 1.81667 50.4833 1.95 50.05C2.31667 48.95 2.78333 47.5833 3.35 45.95C3.91667 44.2833 4.55 42.4833 5.25 40.55C5.95 38.6167 6.66667 36.65 7.4 34.65C8.13333 32.65 8.83333 30.75 9.5 28.95C10.2 27.1167 10.8333 25.5 11.4 24.1C11.7333 23.9333 12.2333 23.7667 12.9 23.6C13.6 23.4 14.3 23.3 15 23.3C15.9 23.3 16.7333 23.4333 17.5 23.7C18.2667 23.9667 18.7667 24.4167 19 25.05C19.7333 26.9167 20.5333 29.0667 21.4 31.5C22.2667 33.9 23.1333 36.4 24 39C24.9 41.6 25.75 44.1333 26.55 46.6C27.35 49.0667 28.0667 51.3 28.7 53.3C28.4333 53.6333 28.05 53.9 27.55 54.1C27.0833 54.3 26.55 54.4 25.95 54.4C25.05 54.4 24.4 54.2333 24 53.9C23.6 53.5667 23.2833 53 23.05 52.2L20.65 44.85L20.1 42.6C19.5 40.7333 18.8833 38.8667 18.25 37C17.65 35.1333 17.0667 33.4 16.5 31.8C15.9667 30.2 15.5167 28.85 15.15 27.75ZM6.8 46.3L8.65 42.15H21.9L22.75 46.3H6.8ZM33.5305 40.8H38.5805V47.2C38.5805 48.4333 38.9305 49.3 39.6305 49.8C40.3305 50.3 41.3138 50.55 42.5805 50.55C43.1471 50.55 43.7471 50.4667 44.3805 50.3C45.0471 50.1333 45.6138 49.9333 46.0805 49.7C46.3138 49.9333 46.5138 50.2167 46.6805 50.55C46.8471 50.8833 46.9305 51.2833 46.9305 51.75C46.9305 52.6167 46.4805 53.3167 45.5805 53.85C44.7138 54.3833 43.4138 54.65 41.6805 54.65C39.2138 54.65 37.2305 54.1 35.7305 53C34.2638 51.9 33.5305 50.0833 33.5305 47.55V40.8ZM36.3805 35.2V31.15H46.3805C46.4805 31.3167 46.5971 31.5833 46.7305 31.95C46.8638 32.3167 46.9305 32.7 46.9305 33.1C46.9305 33.8 46.7638 34.3333 46.4305 34.7C46.0971 35.0333 45.6471 35.2 45.0805 35.2H36.3805ZM38.5805 42.25H33.5305V24.15C33.7305 24.0833 34.0471 24.0167 34.4805 23.95C34.9138 23.85 35.3805 23.8 35.8805 23.8C36.7805 23.8 37.4471 23.9833 37.8805 24.35C38.3471 24.6833 38.5805 25.2667 38.5805 26.1V42.25ZM52.5316 40.8L57.5816 41.25V53.9C57.3816 53.9667 57.065 54.05 56.6316 54.15C56.2316 54.25 55.7816 54.3 55.2816 54.3C54.3483 54.3 53.6483 54.1333 53.1816 53.8C52.7483 53.4333 52.5316 52.8167 52.5316 51.95V40.8ZM57.5816 43.75L52.5316 43.35V21.55C52.7316 21.4833 53.0483 21.4167 53.4816 21.35C53.915 21.25 54.365 21.2 54.8316 21.2C55.7983 21.2 56.4983 21.3667 56.9316 21.7C57.365 22.0333 57.5816 22.6333 57.5816 23.5V43.75ZM73.6758 54.7C70.4424 54.7 67.9091 54.0833 66.0758 52.85C64.2758 51.5833 63.3758 49.7333 63.3758 47.3C63.3758 45.1 64.0924 43.4167 65.5258 42.25C66.9924 41.0833 69.0258 40.3667 71.6258 40.1L78.6258 39.4V38.25C78.6258 36.75 78.1424 35.6667 77.1758 35C76.2091 34.3 74.8924 33.95 73.2258 33.95C71.8924 33.95 70.5924 34.1333 69.3258 34.5C68.0924 34.8667 66.9924 35.3 66.0258 35.8C65.7258 35.5333 65.4591 35.2167 65.2258 34.85C64.9924 34.45 64.8758 34.05 64.8758 33.65C64.8758 32.5833 65.4424 31.8 66.5758 31.3C67.4758 30.8667 68.5258 30.5333 69.7258 30.3C70.9591 30.0667 72.2258 29.95 73.5258 29.95C76.5924 29.95 79.0258 30.6167 80.8258 31.95C82.6591 33.2833 83.5758 35.4 83.5758 38.3V50C83.5758 50.7667 83.4091 51.3667 83.0758 51.8C82.7424 52.2 82.2924 52.5833 81.7258 52.95C80.8591 53.4167 79.7258 53.8167 78.3258 54.15C76.9591 54.5167 75.4091 54.7 73.6758 54.7ZM73.6758 50.75C74.8758 50.75 75.9091 50.6333 76.7758 50.4C77.6424 50.1333 78.2591 49.8833 78.6258 49.65V43.15L73.0258 43.7C71.4924 43.8333 70.3258 44.1833 69.5258 44.75C68.7591 45.3167 68.3758 46.1333 68.3758 47.2C68.3758 48.3 68.8091 49.1667 69.6758 49.8C70.5758 50.4333 71.9091 50.75 73.6758 50.75ZM107.664 47.6C107.664 49.8333 106.831 51.5833 105.164 52.85C103.531 54.0833 101.147 54.7 98.0141 54.7C95.4141 54.7 93.2807 54.3 91.6141 53.5C89.9807 52.7 89.1641 51.75 89.1641 50.65C89.1641 50.15 89.2807 49.6833 89.5141 49.25C89.7807 48.8167 90.1307 48.4833 90.5641 48.25C91.4974 48.85 92.5641 49.4 93.7641 49.9C94.9641 50.4 96.3474 50.65 97.9141 50.65C101.081 50.65 102.664 49.6333 102.664 47.6C102.664 46.7667 102.381 46.0833 101.814 45.55C101.281 45.0167 100.481 44.6167 99.4141 44.35L95.8641 43.45C93.6307 42.95 91.9807 42.15 90.9141 41.05C89.8807 39.95 89.3641 38.5333 89.3641 36.8C89.3641 34.8667 90.1474 33.25 91.7141 31.95C93.3141 30.6167 95.6141 29.95 98.6141 29.95C100.181 29.95 101.564 30.1167 102.764 30.45C103.997 30.75 104.947 31.1833 105.614 31.75C106.314 32.2833 106.664 32.9 106.664 33.6C106.664 34.1 106.547 34.55 106.314 34.95C106.081 35.35 105.781 35.65 105.414 35.85C105.014 35.5833 104.481 35.3167 103.814 35.05C103.181 34.75 102.431 34.5 101.564 34.3C100.731 34.0667 99.8474 33.95 98.9141 33.95C97.5141 33.95 96.3974 34.2 95.5641 34.7C94.7641 35.2 94.3641 35.9 94.3641 36.8C94.3641 37.4667 94.5974 38.0333 95.0641 38.5C95.5307 38.9667 96.3141 39.3333 97.4141 39.6L100.414 40.3C102.881 40.9 104.697 41.8 105.864 43C107.064 44.1667 107.664 45.7 107.664 47.6Z" fill="#01463A"/>
<path d="M3.072 68.148C3.568 68.148 3.94 68.04 4.188 67.824C4.444 67.608 4.572 67.332 4.572 66.996C4.572 66.708 4.472 66.472 4.272 66.288C4.08 66.096 3.784 65.944 3.384 65.832L2.472 65.556C2.104 65.436 1.784 65.292 1.512 65.124C1.24 64.956 1.028 64.744 0.876 64.488C0.732 64.232 0.66 63.924 0.66 63.564C0.66 62.94 0.892 62.448 1.356 62.088C1.82 61.72 2.448 61.536 3.24 61.536C3.68 61.536 4.072 61.584 4.416 61.68C4.76 61.768 5.032 61.888 5.232 62.04C5.432 62.192 5.532 62.36 5.532 62.544C5.532 62.672 5.496 62.788 5.424 62.892C5.36 62.988 5.28 63.068 5.184 63.132C4.992 62.98 4.728 62.848 4.392 62.736C4.064 62.624 3.708 62.568 3.324 62.568C2.884 62.568 2.54 62.66 2.292 62.844C2.044 63.02 1.92 63.26 1.92 63.564C1.92 63.812 2.008 64.012 2.184 64.164C2.36 64.316 2.64 64.448 3.024 64.56L3.732 64.776C4.388 64.968 4.904 65.236 5.28 65.58C5.656 65.924 5.844 66.4 5.844 67.008C5.844 67.648 5.604 68.168 5.124 68.568C4.644 68.968 3.964 69.168 3.084 69.168C2.596 69.168 2.164 69.112 1.788 69C1.42 68.896 1.132 68.76 0.924 68.592C0.716 68.416 0.612 68.232 0.612 68.04C0.612 67.88 0.66 67.748 0.756 67.644C0.852 67.532 0.96 67.448 1.08 67.392C1.272 67.568 1.536 67.74 1.872 67.908C2.208 68.068 2.608 68.148 3.072 68.148ZM18.9853 62.568C18.9853 62.696 18.9453 62.812 18.8653 62.916C18.7933 63.012 18.7053 63.088 18.6013 63.144C18.4013 63 18.1653 62.868 17.8933 62.748C17.6213 62.628 17.2773 62.568 16.8613 62.568C16.3893 62.568 15.9693 62.676 15.6013 62.892C15.2413 63.1 14.9573 63.412 14.7493 63.828C14.5413 64.244 14.4373 64.756 14.4373 65.364C14.4373 66.284 14.6653 66.976 15.1213 67.44C15.5773 67.904 16.1733 68.136 16.9093 68.136C17.3093 68.136 17.6533 68.08 17.9413 67.968C18.2373 67.856 18.4853 67.728 18.6853 67.584C18.7813 67.632 18.8653 67.708 18.9373 67.812C19.0093 67.916 19.0453 68.036 19.0453 68.172C19.0453 68.276 19.0173 68.376 18.9613 68.472C18.9053 68.56 18.8093 68.644 18.6733 68.724C18.4973 68.836 18.2573 68.936 17.9533 69.024C17.6493 69.12 17.2613 69.168 16.7893 69.168C16.1093 69.168 15.4933 69.028 14.9413 68.748C14.3973 68.468 13.9653 68.048 13.6453 67.488C13.3253 66.92 13.1653 66.212 13.1653 65.364C13.1653 64.524 13.3253 63.82 13.6453 63.252C13.9733 62.684 14.4093 62.256 14.9533 61.968C15.4973 61.68 16.0893 61.536 16.7293 61.536C17.1853 61.536 17.5813 61.588 17.9173 61.692C18.2533 61.788 18.5133 61.916 18.6973 62.076C18.8893 62.236 18.9853 62.4 18.9853 62.568ZM27.9251 65.34H29.1251C29.6531 65.34 30.0691 65.224 30.3731 64.992C30.6851 64.76 30.8411 64.412 30.8411 63.948C30.8411 63.5 30.6811 63.16 30.3611 62.928C30.0491 62.696 29.5931 62.58 28.9931 62.58C28.8011 62.58 28.6131 62.588 28.4291 62.604C28.2451 62.62 28.0771 62.644 27.9251 62.676V65.34ZM29.1731 66.336H26.6891V62.28C26.6891 62.136 26.7251 62.028 26.7971 61.956C26.8771 61.884 26.9851 61.824 27.1211 61.776C27.3611 61.704 27.6531 61.652 27.9971 61.62C28.3411 61.58 28.6851 61.56 29.0291 61.56C30.0531 61.56 30.8171 61.772 31.3211 62.196C31.8331 62.62 32.0891 63.204 32.0891 63.948C32.0891 64.42 31.9731 64.836 31.7411 65.196C31.5171 65.556 31.1891 65.836 30.7571 66.036C30.3251 66.236 29.7971 66.336 29.1731 66.336ZM29.0891 65.988L30.0851 65.616C30.3011 65.888 30.5211 66.168 30.7451 66.456C30.9691 66.744 31.1851 67.024 31.3931 67.296C31.6091 67.568 31.7971 67.812 31.9571 68.028C32.1251 68.244 32.2571 68.416 32.3531 68.544C32.3131 68.712 32.2251 68.848 32.0891 68.952C31.9531 69.048 31.8131 69.096 31.6691 69.096C31.4851 69.096 31.3371 69.052 31.2251 68.964C31.1131 68.876 31.0051 68.752 30.9011 68.592L29.0891 65.988ZM26.6891 65.94H27.9371V68.976C27.8811 68.992 27.8011 69.012 27.6971 69.036C27.5931 69.06 27.4811 69.072 27.3611 69.072C27.1291 69.072 26.9571 69.028 26.8451 68.94C26.7411 68.844 26.6891 68.696 26.6891 68.496V65.94ZM39.9341 64.392H41.1581V68.904C41.1181 68.92 41.0421 68.944 40.9301 68.976C40.8261 69 40.7181 69.012 40.6061 69.012C40.3981 69.012 40.2341 68.952 40.1141 68.832C39.9941 68.704 39.9341 68.54 39.9341 68.34V64.392ZM41.1581 66.264H39.9341V62.376C39.9341 62.176 39.9941 62.016 40.1141 61.896C40.2341 61.768 40.3981 61.704 40.6061 61.704C40.7181 61.704 40.8261 61.716 40.9301 61.74C41.0421 61.764 41.1181 61.788 41.1581 61.812V66.264ZM40.6061 65.772V64.764H44.2181C44.2501 64.812 44.2781 64.88 44.3021 64.968C44.3341 65.048 44.3501 65.14 44.3501 65.244C44.3501 65.412 44.3101 65.544 44.2301 65.64C44.1501 65.728 44.0381 65.772 43.8941 65.772H40.6061ZM40.6061 69.012V67.992H44.6381C44.6701 68.04 44.6981 68.108 44.7221 68.196C44.7541 68.276 44.7701 68.372 44.7701 68.484C44.7701 68.652 44.7301 68.784 44.6501 68.88C44.5781 68.968 44.4661 69.012 44.3141 69.012H40.6061ZM40.6061 62.724V61.704H44.5781C44.6101 61.752 44.6421 61.82 44.6741 61.908C44.7061 61.996 44.7221 62.088 44.7221 62.184C44.7221 62.352 44.6821 62.484 44.6021 62.58C44.5221 62.676 44.4101 62.724 44.2661 62.724H40.6061ZM52.476 64.392H53.7V68.904C53.66 68.92 53.584 68.944 53.472 68.976C53.368 69 53.26 69.012 53.148 69.012C52.94 69.012 52.776 68.952 52.656 68.832C52.536 68.704 52.476 68.54 52.476 68.34V64.392ZM53.7 66.264H52.476V62.376C52.476 62.176 52.536 62.016 52.656 61.896C52.776 61.768 52.94 61.704 53.148 61.704C53.26 61.704 53.368 61.716 53.472 61.74C53.584 61.764 53.66 61.788 53.7 61.812V66.264ZM53.148 65.772V64.764H56.76C56.792 64.812 56.82 64.88 56.844 64.968C56.876 65.048 56.892 65.14 56.892 65.244C56.892 65.412 56.852 65.544 56.772 65.64C56.692 65.728 56.58 65.772 56.436 65.772H53.148ZM53.148 69.012V67.992H57.18C57.212 68.04 57.24 68.108 57.264 68.196C57.296 68.276 57.312 68.372 57.312 68.484C57.312 68.652 57.272 68.784 57.192 68.88C57.12 68.968 57.008 69.012 56.856 69.012H53.148ZM53.148 62.724V61.704H57.12C57.152 61.752 57.184 61.82 57.216 61.908C57.248 61.996 57.264 62.088 57.264 62.184C57.264 62.352 57.224 62.484 57.144 62.58C57.064 62.676 56.952 62.724 56.808 62.724H53.148ZM65.0179 62.928L66.0979 62.868C66.1299 63.148 66.1579 63.456 66.1819 63.792C66.2059 64.128 66.2219 64.468 66.2299 64.812C66.2379 65.148 66.2419 65.472 66.2419 65.784V68.976C66.1939 68.992 66.1139 69.012 66.0019 69.036C65.8979 69.06 65.7899 69.072 65.6779 69.072C65.4539 69.072 65.2859 69.028 65.1739 68.94C65.0699 68.852 65.0179 68.708 65.0179 68.508V62.928ZM70.9939 67.776L69.9019 67.824C69.8299 67.184 69.7899 66.54 69.7819 65.892C69.7739 65.244 69.7699 64.62 69.7699 64.02V61.716C69.8259 61.7 69.9059 61.684 70.0099 61.668C70.1139 61.644 70.2219 61.632 70.3339 61.632C70.5659 61.632 70.7339 61.676 70.8379 61.764C70.9419 61.844 70.9939 61.984 70.9939 62.184V67.776ZM70.9939 67.344V66.96V68.844C70.9139 68.908 70.8059 68.96 70.6699 69C70.5339 69.048 70.3779 69.072 70.2019 69.072C69.9859 69.072 69.7939 69.036 69.6259 68.964C69.4659 68.884 69.3219 68.728 69.1939 68.496L67.1779 64.98C67.0659 64.78 66.9459 64.564 66.8179 64.332C66.6899 64.092 66.5699 63.864 66.4579 63.648C66.3459 63.432 66.2539 63.244 66.1819 63.084L65.0179 63.36V61.908C65.0979 61.82 65.2099 61.752 65.3539 61.704C65.4979 61.656 65.6499 61.632 65.8099 61.632C66.0259 61.632 66.2179 61.672 66.3859 61.752C66.5539 61.832 66.7019 61.984 66.8299 62.208L68.8579 65.724C68.9779 65.924 69.0979 66.144 69.2179 66.384C69.3459 66.616 69.4619 66.84 69.5659 67.056C69.6699 67.272 69.7579 67.46 69.8299 67.62L70.9939 67.344ZM79.1186 64.416H80.3546V68.976C80.3066 68.992 80.2306 69.012 80.1266 69.036C80.0226 69.06 79.9106 69.072 79.7906 69.072C79.5586 69.072 79.3866 69.028 79.2746 68.94C79.1706 68.844 79.1186 68.696 79.1186 68.496V64.416ZM80.3546 65.688H79.1186V61.728C79.1746 61.712 79.2546 61.692 79.3586 61.668C79.4706 61.644 79.5826 61.632 79.6946 61.632C79.9266 61.632 80.0946 61.676 80.1986 61.764C80.3026 61.844 80.3546 61.992 80.3546 62.208V65.688ZM88.4962 62.928L89.5762 62.868C89.6082 63.148 89.6362 63.456 89.6602 63.792C89.6842 64.128 89.7002 64.468 89.7082 64.812C89.7162 65.148 89.7202 65.472 89.7202 65.784V68.976C89.6722 68.992 89.5922 69.012 89.4802 69.036C89.3762 69.06 89.2682 69.072 89.1562 69.072C88.9322 69.072 88.7642 69.028 88.6522 68.94C88.5482 68.852 88.4962 68.708 88.4962 68.508V62.928ZM94.4722 67.776L93.3802 67.824C93.3082 67.184 93.2682 66.54 93.2602 65.892C93.2522 65.244 93.2482 64.62 93.2482 64.02V61.716C93.3042 61.7 93.3842 61.684 93.4882 61.668C93.5922 61.644 93.7002 61.632 93.8122 61.632C94.0442 61.632 94.2122 61.676 94.3162 61.764C94.4202 61.844 94.4722 61.984 94.4722 62.184V67.776ZM94.4722 67.344V66.96V68.844C94.3922 68.908 94.2842 68.96 94.1482 69C94.0122 69.048 93.8562 69.072 93.6802 69.072C93.4642 69.072 93.2722 69.036 93.1042 68.964C92.9442 68.884 92.8002 68.728 92.6722 68.496L90.6562 64.98C90.5442 64.78 90.4242 64.564 90.2962 64.332C90.1682 64.092 90.0482 63.864 89.9362 63.648C89.8242 63.432 89.7322 63.244 89.6602 63.084L88.4962 63.36V61.908C88.5762 61.82 88.6882 61.752 88.8322 61.704C88.9762 61.656 89.1282 61.632 89.2882 61.632C89.5042 61.632 89.6962 61.672 89.8642 61.752C90.0322 61.832 90.1802 61.984 90.3082 62.208L92.3362 65.724C92.4562 65.924 92.5762 66.144 92.6962 66.384C92.8242 66.616 92.9402 66.84 93.0442 67.056C93.1482 67.272 93.2362 67.46 93.3082 67.62L94.4722 67.344ZM108.549 65.508V68.088C108.549 68.256 108.505 68.392 108.417 68.496C108.337 68.6 108.209 68.696 108.033 68.784C107.833 68.896 107.545 68.988 107.169 69.06C106.801 69.132 106.429 69.168 106.053 69.168C105.309 69.168 104.641 69.036 104.049 68.772C103.465 68.5 103.009 68.084 102.681 67.524C102.353 66.956 102.189 66.236 102.189 65.364C102.189 64.516 102.357 63.808 102.693 63.24C103.037 62.672 103.493 62.248 104.061 61.968C104.629 61.68 105.257 61.536 105.945 61.536C106.409 61.536 106.817 61.588 107.169 61.692C107.521 61.788 107.793 61.916 107.985 62.076C108.177 62.228 108.273 62.392 108.273 62.568C108.273 62.696 108.237 62.812 108.165 62.916C108.093 63.012 108.009 63.088 107.913 63.144C107.697 63 107.441 62.868 107.145 62.748C106.849 62.628 106.477 62.568 106.029 62.568C105.541 62.568 105.101 62.676 104.709 62.892C104.325 63.1 104.021 63.412 103.797 63.828C103.573 64.244 103.461 64.756 103.461 65.364C103.461 66.004 103.573 66.528 103.797 66.936C104.029 67.344 104.341 67.648 104.733 67.848C105.133 68.04 105.581 68.136 106.077 68.136C106.341 68.136 106.585 68.116 106.809 68.076C107.033 68.028 107.209 67.972 107.337 67.908V65.952H105.645C105.621 65.904 105.593 65.836 105.561 65.748C105.537 65.66 105.525 65.568 105.525 65.472C105.525 65.296 105.565 65.164 105.645 65.076C105.725 64.988 105.833 64.944 105.969 64.944H107.985C108.145 64.944 108.277 64.996 108.381 65.1C108.493 65.204 108.549 65.34 108.549 65.508Z" fill="#058B74"/>
<path d="M108.713 25.9042C104.059 22.2675 95.7819 25.0831 99.4187 20.4283C103.055 15.7735 109.777 14.9482 114.432 18.5849C119.087 22.2217 119.912 28.9433 116.275 33.5981C112.639 38.2529 113.368 29.541 108.713 25.9042Z" fill="#058B74"/>
</svg>
