<svg width="80" height="97" viewBox="0 0 80 97" fill="none" xmlns="http://www.w3.org/2000/svg">
<path d="M0 44C0 21.9086 17.9086 4 40 4C62.0914 4 80 21.9086 80 44C80 66.0914 62.0914 84 40 84C17.9086 84 0 66.0914 0 44Z" fill="white"/>
<path d="M48.7134 23.9042C44.0586 20.2675 35.782 23.0831 39.4187 18.4283C43.0554 13.7735 49.7771 12.9482 54.4319 16.5849C59.0867 20.2217 59.912 26.9433 56.2753 31.5981C52.6385 36.2529 53.3682 27.541 48.7134 23.9042Z" fill="#058B74"/>
<path d="M38.9 36.38H38.6C38.16 37.62 37.68 39 37.16 40.52C36.64 42.04 36.1 43.64 35.54 45.32C34.98 47 34.46 48.68 33.98 50.36L32.84 55.88C32.6 56.68 32.36 57.5 32.12 58.34C31.92 59.14 31.7 59.94 31.46 60.74C31.26 61.5 31.06 62.24 30.86 62.96C30.66 63.68 30.48 64.36 30.32 65C29.84 65.12 29.3 65.24 28.7 65.36C28.14 65.52 27.48 65.6 26.72 65.6C25 65.6 23.7 65.3 22.82 64.7C21.94 64.06 21.5 63.18 21.5 62.06C21.5 61.54 21.56 61.02 21.68 60.5C21.84 59.98 22.02 59.38 22.22 58.7C22.58 57.38 23.08 55.72 23.72 53.72C24.36 51.72 25.08 49.56 25.88 47.24C26.68 44.88 27.48 42.56 28.28 40.28C29.12 38 29.88 35.92 30.56 34.04C31.24 32.12 31.78 30.62 32.18 29.54C32.82 29.18 33.74 28.86 34.94 28.58C36.18 28.26 37.42 28.1 38.66 28.1C40.38 28.1 41.92 28.36 43.28 28.88C44.68 29.36 45.56 30.16 45.92 31.28C46.72 33.4 47.56 35.86 48.44 38.66C49.32 41.42 50.2 44.32 51.08 47.36C52 50.36 52.88 53.3 53.72 56.18C54.6 59.02 55.36 61.58 56 63.86C55.56 64.34 54.9 64.74 54.02 65.06C53.18 65.42 52.18 65.6 51.02 65.6C49.34 65.6 48.16 65.3 47.48 64.7C46.8 64.1 46.28 63.18 45.92 61.94L44.06 55.34L42.98 50.12C42.5 48.36 42 46.66 41.48 45.02C41 43.34 40.54 41.76 40.1 40.28C39.66 38.8 39.26 37.5 38.9 36.38ZM28.82 56.96L32.42 49.76H46.34L47.54 56.96H28.82Z" fill="#01463A"/>
</svg>
